<?xml version="1.0" encoding="utf-8"?>
<!-- Generator: Adobe Illustrator 19.0.0, SVG Export Plug-In . SVG Version: 6.00 Build 0)  -->
<svg version="1.1" id="Layer_1" xmlns="http://www.w3.org/2000/svg" xmlns:xlink="http://www.w3.org/1999/xlink" x="0px" y="0px"
	 viewBox="-83 329.9 444.3 134.1" style="enable-background:new -83 329.9 444.3 134.1;" xml:space="preserve">
<style type="text/css">
	.st0{fill:#414042;}
	.st1{fill:#3D93BD;}
</style>
<title>Wordmark-Primary</title>
<path class="st0" d="M-12.6,411.5h-16.2l-2.8,8.9h-11.2l17.4-46.8h10.4l17.1,46.8h-12L-12.6,411.5z M-15.4,402.4l-5.2-16.8
	l-5.4,16.8H-15.4z"/>
<path class="st0" d="M59.9,420.4l-7.1-15.2c-1.2,0.1-2.5,0.1-3.8,0.1h-4.9v15.1h-11v-46.8h16.2c17.5,0,20.9,3.8,20.9,15.8
	c0,7.5-1.4,11.8-6.8,14l8.8,16.9L59.9,420.4z M49,396c6.8,0,10.2-0.3,10.2-6.6c0-6.3-3.4-6.7-10.2-6.7h-4.9V396H49z"/>
<path class="st1" d="M104.7,373.6h11v46.8h-11V373.6z"/>
<path class="st1" d="M182.7,383.7h-11.9l-0.1,36.7h-11l0.1-36.7h-11.9v-10.1h34.8V383.7z"/>
<path class="st0" d="M247.2,410.9v9.5h-32.9v-46.8h32.4v9.5h-21.3v9h18.1v8.9h-18.1v10H247.2z"/>
<path class="st0" d="M308.3,420.4l-10.6-15.3l-10.1,15.3h-11.9l15.9-23.9h0.1l-15.9-22.9h12.8l10.1,14.5l9.5-14.5h11.9l-15.3,23.4
	l16.4,23.5L308.3,420.4z"/>
</svg>
